<svg data-noselect="" viewBox="0 0 400 300" width="400" height="300" preserveAspectRatio="none" version="1.1" xmlns="http://www.w3.org/2000/svg" style="background: rgba(255, 255, 255, 0);"><defs></defs> <g id="shape_BThzRFBN22" transform="translate(112.29508196721312,49.18032786885246) rotate(0,0,0) scale(1.639344262295082,1.639344262295082)" filter="" style="cursor: move; opacity: 1;"><g><rect fill="rgba(0,0,0,0)" width="127" height="99" x="-10" y="-10"></rect><svg xmlns="http://www.w3.org/2000/svg" xmlns:xlink="http://www.w3.org/1999/xlink" shape-rendering="auto" text-rendering="auto" contentscripttype="text/ecmascript" color-rendering="auto" color-interpolation="auto" xml:space="preserve" preserveAspectRatio="none" image-rendering="auto" zoomAndPan="magnify" version="1.1" contentstyletype="text/css" x="0px" enable-background="new 0 0 116.606 88.804" y="0px" viewBox="2.999962091445923 2.9997072219848633 107.6056137084961 79.80429077148438" width="107" height="79" data-parent="shape_BThzRFBN22">
 <g fill="#00A73C" id="layer3">
  <path clip-rule="evenodd" d="M52.413,23.612c0.969,0.436,1.441,1.742,1.773,3.503   l10.354,55.689L14.813,53.511L3.057,10.023C2.734,8.753,3.842,7.938,4.89,8.271l20.343,6.691c2.299,0.741,1.141-3.216,2.883-2.689   l15.295,4.611c1.514,0.546,0.904,3.864,2.428,4.54L52.413,23.612L52.413,23.612L52.413,23.612z" fill-rule="evenodd"></path>
 </g>
 <g fill="#FBC400" id="layer2">
  <path clip-rule="evenodd" d="M78.806,16.538L26.536,3.057   c-1.012-0.237-1.668,0.265-2.033,1.437l-2.439,9.425l3.17,1.043c2.299,0.741,1.141-3.216,2.883-2.689l15.295,4.611   c1.514,0.546,0.904,3.864,2.428,4.54l6.574,2.188c0.969,0.436,1.441,1.742,1.773,3.503l10.352,55.674l0.006,0.01l15.791-63.227   C80.628,18.192,79.914,16.876,78.806,16.538L78.806,16.538L78.806,16.538z" fill-rule="evenodd"></path>
 </g>
 <g fill="#00AFEC" id="layer1">
  <path clip-rule="evenodd" d="M108.419,61.547L72.671,50.255l-8.127,32.543l-0.006-0.01   l0.002,0.016l45.711-19.622C111.343,62.582,109.679,62.06,108.419,61.547L108.419,61.547L108.419,61.547z" fill-rule="evenodd"></path>
 </g>
 <!--Copyright (c) Logomaker.com.cn  @2015-05-31-->
</svg></g> <!----></g><g id="shapge_mbBHPKXBPP" transform="translate(117.21311475409837,188.52459016393442) rotate(0,0,0) scale(1.639344262295082,1.639344262295082)" filter="" style="cursor: move; opacity: 1;"><g><svg xmlns="http://www.w3.org/2000/svg" version="1.1" xmlns:xlink="http://www.w3.org/1999/xlink" overflow="hidden" style="top:0; left: 0" width="101" height="38" viewBox="0 0 101.54100000000001 38.279999999999994" preserveAspectRatio="none" data-parent="shapge_mbBHPKXBPP"><rect fill="rgba(0,0,0,0)" width="101" height="38"></rect> <rect opacity="0"></rect><g transform="translate(0 0)" data-width="96.54100000000001"><path fill="#00A73C" d="M10.93 0.38L10.93 0.38L10.93 0.38Q8.29 0.38 6.21-0.93L6.21-0.93L6.21-0.93Q4.12-2.23 2.90-4.70L2.90-4.70L2.90-4.70Q1.68-7.16 1.68-10.61L1.68-10.61L1.68-10.61Q1.68-14.07 2.91-16.53L2.91-16.53L2.91-16.53Q4.15-19.00 6.28-20.33L6.28-20.33L6.28-20.33Q8.41-21.66 11.11-21.66L11.11-21.66L11.11-21.66Q13.05-21.66 14.53-20.88L14.53-20.88L14.53-20.88Q16.01-20.10 16.94-19.02L16.94-19.02L15.49-17.28L15.49-17.28Q14.67-18.18 13.59-18.75L13.59-18.75L13.59-18.75Q12.50-19.31 11.14-19.31L11.14-19.31L11.14-19.31Q8.12-19.31 6.28-16.99L6.28-16.99L6.28-16.99Q4.44-14.67 4.44-10.70L4.44-10.70L4.44-10.70Q4.44-6.67 6.22-4.32L6.22-4.32L6.22-4.32Q8.00-1.97 11.05-1.97L11.05-1.97L11.05-1.97Q12.59-1.97 13.78-2.60L13.78-2.60L13.78-2.60Q14.96-3.22 15.98-4.35L15.98-4.35L17.46-2.67L17.46-2.67Q16.21-1.19 14.60-0.41L14.60-0.41L14.60-0.41Q12.99 0.38 10.93 0.38Z" transform="translate(0 25.52)"></path><path fill="#00A73C" d="M10.93 0.38L10.93 0.38L10.93 0.38Q8.29 0.38 6.21-0.93L6.21-0.93L6.21-0.93Q4.12-2.23 2.90-4.70L2.90-4.70L2.90-4.70Q1.68-7.16 1.68-10.61L1.68-10.61L1.68-10.61Q1.68-14.07 2.91-16.53L2.91-16.53L2.91-16.53Q4.15-19.00 6.28-20.33L6.28-20.33L6.28-20.33Q8.41-21.66 11.11-21.66L11.11-21.66L11.11-21.66Q13.05-21.66 14.53-20.88L14.53-20.88L14.53-20.88Q16.01-20.10 16.94-19.02L16.94-19.02L15.49-17.28L15.49-17.28Q14.67-18.18 13.59-18.75L13.59-18.75L13.59-18.75Q12.50-19.31 11.14-19.31L11.14-19.31L11.14-19.31Q8.12-19.31 6.28-16.99L6.28-16.99L6.28-16.99Q4.44-14.67 4.44-10.70L4.44-10.70L4.44-10.70Q4.44-6.67 6.22-4.32L6.22-4.32L6.22-4.32Q8.00-1.97 11.05-1.97L11.05-1.97L11.05-1.97Q12.59-1.97 13.78-2.60L13.78-2.60L13.78-2.60Q14.96-3.22 15.98-4.35L15.98-4.35L17.46-2.67L17.46-2.67Q16.21-1.19 14.60-0.41L14.60-0.41L14.60-0.41Q12.99 0.38 10.93 0.38Z" transform="translate(18.502000000000002 25.52)"></path><path fill="#00A73C" d="M5.60 0L2.90 0L2.90-21.26L5.60-21.26L5.60-12.35L15.52-12.35L15.52-21.26L18.18-21.26L18.18 0L15.52 0L15.52-10.03L5.60-10.03L5.60 0Z" transform="translate(37.004000000000005 25.52)"></path><path fill="#00A73C" d="M5.60 0L2.90 0L2.90-21.26L5.60-21.26L5.60-12.35L15.52-12.35L15.52-21.26L18.18-21.26L18.18 0L15.52 0L15.52-10.03L5.60-10.03L5.60 0Z" transform="translate(58.11600000000001 25.52)"></path><path fill="#00A73C" d="M8.82 0.38L8.82 0.38L8.82 0.38Q6.55 0.38 4.65-0.46L4.65-0.46L4.65-0.46Q2.76-1.31 1.36-2.78L1.36-2.78L2.96-4.61L2.96-4.61Q5.54-1.97 8.85-1.97L8.85-1.97L8.85-1.97Q10.93-1.97 12.12-2.93L12.12-2.93L12.12-2.93Q13.31-3.89 13.31-5.45L13.31-5.45L13.31-5.45Q13.31-6.55 12.85-7.21L12.85-7.21L12.85-7.21Q12.38-7.86 11.59-8.32L11.59-8.32L11.59-8.32Q10.79-8.79 9.77-9.22L9.77-9.22L6.70-10.56L6.70-10.56Q5.68-10.96 4.70-11.66L4.70-11.66L4.70-11.66Q3.71-12.35 3.05-13.41L3.05-13.41L3.05-13.41Q2.38-14.47 2.38-16.01L2.38-16.01L2.38-16.01Q2.38-18.47 4.28-20.07L4.28-20.07L4.28-20.07Q6.18-21.66 9.08-21.66L9.08-21.66L9.08-21.66Q10.96-21.66 12.59-20.94L12.59-20.94L12.59-20.94Q14.21-20.21 15.34-19.02L15.34-19.02L13.92-17.31L13.92-17.31Q12.93-18.24 11.75-18.78L11.75-18.78L11.75-18.78Q10.56-19.31 9.08-19.31L9.08-19.31L9.08-19.31Q7.28-19.31 6.19-18.47L6.19-18.47L6.19-18.47Q5.10-17.63 5.10-16.18L5.10-16.18L5.10-16.18Q5.10-15.17 5.64-14.50L5.64-14.50L5.64-14.50Q6.18-13.83 6.97-13.41L6.97-13.41L6.97-13.41Q7.77-12.99 8.61-12.64L8.61-12.64L11.66-11.34L11.66-11.34Q12.91-10.82 13.89-10.09L13.89-10.09L13.89-10.09Q14.88-9.37 15.46-8.31L15.46-8.31L15.46-8.31Q16.04-7.25 16.04-5.66L16.04-5.66L16.04-5.66Q16.04-3.13 14.09-1.38L14.09-1.38L14.09-1.38Q12.15 0.38 8.82 0.38Z" transform="translate(79.22800000000001 25.52)"></path></g></svg></g> <!----></g>  <!----></svg>