<svg data-noselect="" viewBox="0 0 400 300" width="400" height="300" preserveAspectRatio="none" version="1.1" xmlns="http://www.w3.org/2000/svg" style="background: rgba(255, 255, 255, 0);"><defs></defs> <g id="shape_s0RPfeYoBG" transform="translate(105.76695066179549,53.57142857142858) rotate(0,40,38.5) scale(1.7857142857142858,1.7857142857142858)" filter="" style="cursor: move; opacity: 1;"><g><rect fill="rgba(0,0,0,0)" width="101" height="98" x="-10" y="-10"></rect><svg xmlns="http://www.w3.org/2000/svg" xmlns:xlink="http://www.w3.org/1999/xlink" shape-rendering="auto" id="layer1" text-rendering="auto" contentscripttype="text/ecmascript" color-rendering="auto" color-interpolation="auto" xml:space="preserve" preserveAspectRatio="none" image-rendering="auto" zoomAndPan="magnify" version="1.1" contentstyletype="text/css" x="0px" enable-background="new 0 0 88.969 86.58" y="0px" viewBox="3 3 79.96900177001953 77.58000183105469" width="81" height="78" data-parent="shape_s0RPfeYoBG">
 <g fill="#004199">
  <path clip-rule="evenodd" d="M42.983,45.244c5.448-4.649,11.026-4.649,10.895-2.258V80.58   h29.091V27.576c-9.301-1.329-24.974,2.524-39.986,9.964V45.244L42.983,45.244L42.983,45.244z M42.983,32.891v-4.784l6.245-1.728   c3.187-0.928,4.65-1.328,4.65-3.983V3h29.091v24.177C70.348,24.52,56.135,27.442,42.983,32.891L42.983,32.891z M3,80.58h28.958   v-5.848c0-15.805,5.449-24.84,11.025-29.488V37.54C23.189,47.236,4.461,63.043,3,80.58L3,80.58L3,80.58z M42.983,28.107v4.784   c-12.618,5.181-24.308,12.486-32.812,19.26C7.782,54.013,3,55.605,3,48.431V3h28.823v23.247c-0.13,4.116,1.862,4.518,7.174,3.056   L42.983,28.107L42.983,28.107L42.983,28.107z" fill-rule="evenodd"></path>
 </g>
 <!--Copyright (c) Logomaker.com.cn  @2015-06-16-->
</svg></g> <!----></g><g id="shapge_cdEwxr3OKl" transform="translate(103.98125000000002,196.42857142857144) rotate(0,53.7705,14) scale(1.7857142857142858,1.7857142857142858)" filter="" style="cursor: move; opacity: 1;"><g><svg xmlns="http://www.w3.org/2000/svg" version="1.1" xmlns:xlink="http://www.w3.org/1999/xlink" overflow="hidden" style="top:0; left: 0" width="107.541" height="28" viewBox="0 0 107.541 28" preserveAspectRatio="none" data-parent="shapge_cdEwxr3OKl"><rect fill="rgba(0,0,0,0)" width="107.541" height="28"></rect> <rect opacity="0"></rect><g transform="translate(0 0)" data-width="83.225"><path fill="rgb(0, 65, 153)" d="M9.43 0.33L9.43 0.33L9.43 0.33Q7.15 0.33 5.35-0.80L5.35-0.80L5.35-0.80Q3.55-1.93 2.50-4.05L2.50-4.05L2.50-4.05Q1.45-6.18 1.45-9.15L1.45-9.15L1.45-9.15Q1.45-12.13 2.51-14.25L2.51-14.25L2.51-14.25Q3.58-16.38 5.41-17.53L5.41-17.53L5.41-17.53Q7.25-18.68 9.58-18.68L9.58-18.68L9.58-18.68Q11.25-18.68 12.53-18L12.53-18L12.53-18Q13.80-17.32 14.60-16.40L14.60-16.40L13.35-14.90L13.35-14.90Q12.65-15.68 11.71-16.16L11.71-16.16L11.71-16.16Q10.78-16.65 9.60-16.65L9.60-16.65L9.60-16.65Q7-16.65 5.41-14.65L5.41-14.65L5.41-14.65Q3.83-12.65 3.83-9.22L3.83-9.22L3.83-9.22Q3.83-5.75 5.36-3.73L5.36-3.73L5.36-3.73Q6.90-1.70 9.53-1.70L9.53-1.70L9.53-1.70Q10.85-1.70 11.88-2.24L11.88-2.24L11.88-2.24Q12.90-2.78 13.78-3.75L13.78-3.75L15.05-2.30L15.05-2.30Q13.98-1.03 12.59-0.35L12.59-0.35L12.59-0.35Q11.20 0.33 9.43 0.33Z" transform="translate(0 22)" stroke="rgb(0, 65, 153)" stroke-width="2" stroke-linecap="round" stroke-linejoin="round"></path><path fill="rgb(0, 65, 153)" d="M9.43 0.33L9.43 0.33L9.43 0.33Q7.15 0.33 5.35-0.80L5.35-0.80L5.35-0.80Q3.55-1.93 2.50-4.05L2.50-4.05L2.50-4.05Q1.45-6.18 1.45-9.15L1.45-9.15L1.45-9.15Q1.45-12.13 2.51-14.25L2.51-14.25L2.51-14.25Q3.58-16.38 5.41-17.53L5.41-17.53L5.41-17.53Q7.25-18.68 9.58-18.68L9.58-18.68L9.58-18.68Q11.25-18.68 12.53-18L12.53-18L12.53-18Q13.80-17.32 14.60-16.40L14.60-16.40L13.35-14.90L13.35-14.90Q12.65-15.68 11.71-16.16L11.71-16.16L11.71-16.16Q10.78-16.65 9.60-16.65L9.60-16.65L9.60-16.65Q7-16.65 5.41-14.65L5.41-14.65L5.41-14.65Q3.83-12.65 3.83-9.22L3.83-9.22L3.83-9.22Q3.83-5.75 5.36-3.73L5.36-3.73L5.36-3.73Q6.90-1.70 9.53-1.70L9.53-1.70L9.53-1.70Q10.85-1.70 11.88-2.24L11.88-2.24L11.88-2.24Q12.90-2.78 13.78-3.75L13.78-3.75L15.05-2.30L15.05-2.30Q13.98-1.03 12.59-0.35L12.59-0.35L12.59-0.35Q11.20 0.33 9.43 0.33Z" transform="translate(15.950000000000001 22)" stroke="rgb(0, 65, 153)" stroke-width="2" stroke-linecap="round" stroke-linejoin="round"></path><path fill="rgb(0, 65, 153)" d="M4.83 0L2.50 0L2.50-18.32L4.83-18.32L4.83-10.65L13.38-10.65L13.38-18.32L15.68-18.32L15.68 0L13.38 0L13.38-8.65L4.83-8.65L4.83 0Z" transform="translate(31.900000000000002 22)" stroke="rgb(0, 65, 153)" stroke-width="2" stroke-linecap="round" stroke-linejoin="round"></path><path fill="rgb(0, 65, 153)" d="M4.83 0L2.50 0L2.50-18.32L4.83-18.32L4.83-10.65L13.38-10.65L13.38-18.32L15.68-18.32L15.68 0L13.38 0L13.38-8.65L4.83-8.65L4.83 0Z" transform="translate(50.1 22)" stroke="rgb(0, 65, 153)" stroke-width="2" stroke-linecap="round" stroke-linejoin="round"></path><path fill="rgb(0, 65, 153)" d="M7.60 0.33L7.60 0.33L7.60 0.33Q5.65 0.33 4.01-0.40L4.01-0.40L4.01-0.40Q2.38-1.13 1.18-2.40L1.18-2.40L2.55-3.98L2.55-3.98Q4.78-1.70 7.63-1.70L7.63-1.70L7.63-1.70Q9.43-1.70 10.45-2.53L10.45-2.53L10.45-2.53Q11.48-3.35 11.48-4.70L11.48-4.70L11.48-4.70Q11.48-5.65 11.08-6.21L11.08-6.21L11.08-6.21Q10.68-6.78 9.99-7.18L9.99-7.18L9.99-7.18Q9.30-7.58 8.43-7.95L8.43-7.95L5.78-9.10L5.78-9.10Q4.90-9.45 4.05-10.05L4.05-10.05L4.05-10.05Q3.20-10.65 2.63-11.56L2.63-11.56L2.63-11.56Q2.05-12.48 2.05-13.80L2.05-13.80L2.05-13.80Q2.05-15.93 3.69-17.30L3.69-17.30L3.69-17.30Q5.33-18.68 7.83-18.68L7.83-18.68L7.83-18.68Q9.45-18.68 10.85-18.05L10.85-18.05L10.85-18.05Q12.25-17.43 13.23-16.40L13.23-16.40L12-14.93L12-14.93Q11.15-15.73 10.13-16.19L10.13-16.19L10.13-16.19Q9.10-16.65 7.83-16.65L7.83-16.65L7.83-16.65Q6.28-16.65 5.34-15.93L5.34-15.93L5.34-15.93Q4.40-15.20 4.40-13.95L4.40-13.95L4.40-13.95Q4.40-13.08 4.86-12.50L4.86-12.50L4.86-12.50Q5.33-11.93 6.01-11.56L6.01-11.56L6.01-11.56Q6.70-11.20 7.43-10.90L7.43-10.90L10.05-9.78L10.05-9.78Q11.13-9.33 11.98-8.70L11.98-8.70L11.98-8.70Q12.83-8.08 13.33-7.16L13.33-7.16L13.33-7.16Q13.83-6.25 13.83-4.88L13.83-4.88L13.83-4.88Q13.83-2.70 12.15-1.19L12.15-1.19L12.15-1.19Q10.48 0.33 7.60 0.33Z" transform="translate(68.3 22)" stroke="rgb(0, 65, 153)" stroke-width="2" stroke-linecap="round" stroke-linejoin="round"></path></g></svg></g> <!----></g>  <!----></svg>