<svg version="1.1" xmlns="http://www.w3.org/2000/svg" xmlns:xlink="http://www.w3.org/1999/xlink" width="300" height="300"><g data-paper-data="{&quot;description&quot;:&quot;Logo for CCHHS\n==============\n\nThis logo was generated by MarkMaker and is composed of elements designed by others.\n\nThe font is MontserratSubrayada-Regular designed by Julieta Ulanovsky and released under the OFL license via Google Fonts: https://www.google.com/fonts/specimen/Montserrat Subrayada. The font includes this copyright statement: Copyright (c) 2011-2012, Julieta Ulanovsky (julieta.ulanovsky@gmail.com), with Reserved Font Names 'Montserrat'\n\nMarkMaker uses semantic data from the Princeton University WordNet database http://wordnet.princeton.edu and font descriptions from Google Fonts https://www.google.com/fonts.\n\nThis design is inspired by designs that past users of MarkMaker have liked. As a result, it may be visually similar to past or future designs generated by the system. There is no guarantee that it is unique, original, or suitable in any way for use as a logo.\n\n&quot;}" fill="none" fill-rule="nonzero" stroke="none" stroke-width="none" stroke-linecap="butt" stroke-linejoin="miter" stroke-miterlimit="10" stroke-dasharray="" stroke-dashoffset="0" font-family="none" font-weight="none" font-size="none" text-anchor="none" style="mix-blend-mode: normal"><path d="M208.05578,150c0,-14.344 11.62811,-25.97211 25.97211,-25.97211c14.344,0 25.97211,11.62811 25.97211,25.97211c0,14.344 -11.62811,25.97211 -25.97211,25.97211c-14.344,0 -25.97211,-11.62811 -25.97211,-25.97211z" fill="#4dd8b5" stroke-width="0"></path><g data-paper-data="{&quot;elementType&quot;:&quot;logo&quot;}" fill="#4dd8b5" stroke-width="1"><g data-paper-data="{&quot;elementType&quot;:&quot;text&quot;}"><g data-paper-data="{&quot;baseline&quot;:71.60000000000001,&quot;elementType&quot;:&quot;row&quot;}"><g data-paper-data="{&quot;baselineProportion&quot;:1,&quot;fontSize&quot;:100,&quot;baseline&quot;:71.60000000000001,&quot;elementType&quot;:&quot;word&quot;}"><path d="M71.38829,163.43385v1.83383h-31.38829v-1.83383h9.46766c-2.24608,-1.33628 -4.01594,-3.15589 -5.30957,-5.45883c-1.29363,-2.30295 -1.94044,-4.90442 -1.94044,-7.80443c0,-4.37844 1.51397,-8.04609 4.54192,-11.00296c3.02795,-2.95687 6.85197,-4.4353 11.47208,-4.4353c4.62011,0 8.47967,1.70589 11.5787,5.11766l-3.19854,3.49707c-1.42157,-1.36471 -2.76496,-2.31716 -4.03015,-2.85736c-1.2652,-0.5402 -2.75074,-0.8103 -4.45663,-0.8103c-3.01373,0 -5.54413,0.97378 -7.59119,2.92133c-2.04706,1.94755 -3.07059,4.4353 -3.07059,7.46325c0,3.02795 1.01642,5.55834 3.04927,7.59119c2.03285,2.03285 4.44241,3.04927 7.22869,3.04927c1.73432,0 3.22697,-0.29142 4.47795,-0.87427c1.25098,-0.58284 2.55883,-1.51397 3.92354,-2.79339l3.24118,3.32648c-1.25098,1.36471 -2.4451,2.38824 -3.58236,3.07059z" data-paper-data="{&quot;elementType&quot;:&quot;letter&quot;,&quot;baseline&quot;:71.60000000000001,&quot;baselineProportion&quot;:1,&quot;fontSize&quot;:100}"></path><path d="M102.77659,163.43385v1.83383h-31.38829v-1.83383h9.46766c-2.24608,-1.33628 -4.01594,-3.15589 -5.30957,-5.45883c-1.29363,-2.30295 -1.94044,-4.90442 -1.94044,-7.80443c0,-4.37844 1.51397,-8.04609 4.54192,-11.00296c3.02795,-2.95687 6.85197,-4.4353 11.47208,-4.4353c4.62011,0 8.47967,1.70589 11.5787,5.11766l-3.19854,3.49707c-1.42157,-1.36471 -2.76496,-2.31716 -4.03015,-2.85736c-1.2652,-0.5402 -2.75074,-0.8103 -4.45663,-0.8103c-3.01373,0 -5.54413,0.97378 -7.59119,2.92133c-2.04706,1.94755 -3.07059,4.4353 -3.07059,7.46325c0,3.02795 1.01642,5.55834 3.04927,7.59119c2.03285,2.03285 4.44241,3.04927 7.22869,3.04927c1.73432,0 3.22697,-0.29142 4.47795,-0.87427c1.25098,-0.58284 2.55883,-1.51397 3.92354,-2.79339l3.24118,3.32648c-1.25098,1.36471 -2.4451,2.38824 -3.58236,3.07059z" data-paper-data="{&quot;elementType&quot;:&quot;letter&quot;,&quot;baseline&quot;:71.60000000000001,&quot;baselineProportion&quot;:1,&quot;fontSize&quot;:100}"></path><path d="M135.91342,163.43385v1.83383h-9.16913v-12.19708h-14.79856v12.19708h-5.03236v-29.81035h5.03236v12.92208h14.79856v-12.92208h5.03236v27.97652h4.13677M106.91336,163.43385v1.83383h-4.13677v-1.83383z" data-paper-data="{&quot;elementType&quot;:&quot;letter&quot;,&quot;baseline&quot;:69.9,&quot;baselineProportion&quot;:1,&quot;fontSize&quot;:100}"></path><path d="M169.05024,163.43385v1.83383h-9.16913v-12.19708h-14.79856v12.19708h-5.03236v-29.81035h5.03236v12.92208h14.79856v-12.92208h5.03236v27.97652h4.13677M140.05019,163.43385v1.83383h-4.13677v-1.83383z" data-paper-data="{&quot;elementType&quot;:&quot;letter&quot;,&quot;baseline&quot;:69.9,&quot;baselineProportion&quot;:1,&quot;fontSize&quot;:100}"></path><path d="M195.91794,163.43385v1.83383h-26.8677v-1.83383h5.45883c-1.36471,-0.71079 -2.61569,-1.59216 -3.75295,-2.64412l3.15589,-3.7956c3.01373,2.61569 6.14119,3.92354 9.38237,3.92354c1.62059,0 2.90711,-0.34828 3.85957,-1.04485c0.95245,-0.69657 1.42868,-1.62059 1.42868,-2.77206c0,-1.15147 -0.44779,-2.04706 -1.34338,-2.68677c-0.89559,-0.63971 -2.43799,-1.22255 -4.62721,-1.74853c-2.18922,-0.52598 -3.85246,-1.00932 -4.98972,-1.45c-1.13726,-0.44069 -2.14657,-1.01642 -3.02795,-1.72721c-1.76275,-1.33628 -2.64412,-3.38334 -2.64412,-6.14119c0,-2.75785 1.00221,-4.8831 3.00662,-6.37575c2.00442,-1.49265 4.48506,-2.23897 7.44193,-2.23897c1.90491,0 3.7956,0.31275 5.67207,0.93824c1.87647,0.62549 3.49707,1.50687 4.86177,2.64412l-2.68677,3.7956c-0.88137,-0.79608 -2.07549,-1.45 -3.58236,-1.96177c-1.50687,-0.51177 -2.99241,-0.76765 -4.45663,-0.76765c-1.46422,0 -2.66545,0.29853 -3.60368,0.89559c-0.93824,0.59706 -1.40736,1.49976 -1.40736,2.70809c0,1.20834 0.46912,2.13236 1.40736,2.77206c0.93824,0.63971 2.93554,1.32917 5.99192,2.06839c3.05638,0.73922 5.35932,1.77696 6.90884,3.11324c1.54951,1.33628 2.32427,3.21275 2.32427,5.62942c0,2.92844 -1.08039,5.21717 -3.24118,6.86619z" data-paper-data="{&quot;elementType&quot;:&quot;letter&quot;,&quot;baseline&quot;:71.60000000000001,&quot;baselineProportion&quot;:1,&quot;fontSize&quot;:100}"></path></g></g></g></g><g data-paper-data="{&quot;elementType&quot;:&quot;emblem&quot;}" fill="#ffffff" stroke-width="1"><g data-paper-data="{&quot;baselineProportion&quot;:1,&quot;fontSize&quot;:100,&quot;baseline&quot;:71.60000000000001,&quot;elementType&quot;:&quot;word&quot;}"><path d="M241.0442,159.67237v1.32036h-22.59957v-1.32036h6.81672c-1.61718,-0.96212 -2.89148,-2.27224 -3.82289,-3.93036c-0.93141,-1.65812 -1.39712,-3.53118 -1.39712,-5.61919c0,-3.15248 1.09006,-5.79319 3.27018,-7.92213c2.18012,-2.12895 4.93342,-3.19342 8.2599,-3.19342c3.32648,0 6.10536,1.22824 8.33666,3.68471l-2.30295,2.51789c-1.02353,-0.98259 -1.99077,-1.66836 -2.90171,-2.0573c-0.91094,-0.38894 -1.98053,-0.58341 -3.20877,-0.58341c-2.16989,0 -3.99177,0.70112 -5.46566,2.10336c-1.47389,1.40224 -2.21083,3.19342 -2.21083,5.37354c0,2.18012 0.73182,4.00201 2.19547,5.46566c1.46365,1.46365 3.19854,2.19547 5.20466,2.19547c1.24871,0 2.32342,-0.20982 3.22412,-0.62947c0.90071,-0.41965 1.84236,-1.09006 2.82495,-2.01124l2.33365,2.39506c-0.90071,0.98259 -1.76047,1.71953 -2.5793,2.21083z" data-paper-data="{&quot;elementType&quot;:&quot;letter&quot;,&quot;baseline&quot;:71.60000000000001,&quot;baselineProportion&quot;:1,&quot;fontSize&quot;:100}"></path><path d="M249.61116,159.67237v1.32036h-8.56696v-1.32036h2.67142c-0.45035,-0.40941 -0.67553,-0.94677 -0.67553,-1.61206c0,-0.6653 0.22006,-1.218 0.66018,-1.65812c0.44012,-0.44012 0.97747,-0.66018 1.61206,-0.66018c0.63459,0 1.17706,0.22006 1.62741,0.66018c0.45035,0.44012 0.67553,0.98771 0.67553,1.64277c0,0.65506 -0.23541,1.19753 -0.70624,1.62741z" data-paper-data="{&quot;elementType&quot;:&quot;letter&quot;,&quot;baseline&quot;:17.099999999999994,&quot;baselineProportion&quot;:1,&quot;fontSize&quot;:100}"></path></g></g></g></svg>