<svg version="1.1" xmlns="http://www.w3.org/2000/svg" xmlns:xlink="http://www.w3.org/1999/xlink" width="300" height="300"><defs><linearGradient x1="161.98973" y1="118.39947" x2="161.98973" y2="181.60053" gradientUnits="userSpaceOnUse" id="color-1"><stop offset="0" stop-color="#1d5151"></stop><stop offset="1" stop-color="#1e5454"></stop></linearGradient></defs><g data-paper-data="{&quot;description&quot;:&quot;Logo for CCHHS\n==============\n\nThis logo was generated by MarkMaker and is composed of elements designed by others.\n\nThe font is Audiowide designed by Astigmatic and released under the OFL license via Google Fonts: https://www.google.com/fonts/specimen/Audiowide. The font includes this copyright statement: Copyright (c) 2012 by Brian J. Bonislawsky DBA Astigmatic (AOETI) (astigma@astigmatic.com), with Reserved Font Name \\\&quot;Audiowide\\\n\nMarkMaker uses semantic data from the Princeton University WordNet database http://wordnet.princeton.edu and font descriptions from Google Fonts https://www.google.com/fonts.\n\nThis design is inspired by designs that past users of MarkMaker have liked. As a result, it may be visually similar to past or future designs generated by the system. There is no guarantee that it is unique, original, or suitable in any way for use as a logo.\n\n&quot;}" fill="url(#color-1)" fill-rule="nonzero" stroke="none" stroke-width="1" stroke-linecap="butt" stroke-linejoin="miter" stroke-miterlimit="10" stroke-dasharray="" stroke-dashoffset="0" font-family="none" font-weight="none" font-size="none" text-anchor="none" style="mix-blend-mode: normal"><g data-paper-data="{&quot;elementType&quot;:&quot;logo&quot;}"><g data-paper-data="{&quot;elementType&quot;:&quot;text&quot;}"><g data-paper-data="{&quot;baseline&quot;:75.09765625,&quot;elementType&quot;:&quot;row&quot;}"><g data-paper-data="{&quot;baselineProportion&quot;:1,&quot;fontSize&quot;:100,&quot;baseline&quot;:75.09765625,&quot;elementType&quot;:&quot;word&quot;}"><path d="M73.92844,181.60053h-28.97058c-1.47935,0 -3.09567,-0.26026 -4.84898,-0.78077c-1.7533,-0.52051 -3.37648,-1.37662 -4.86952,-2.56831c-1.49305,-1.1917 -2.73953,-2.73953 -3.73946,-4.64351c-0.99993,-1.90398 -1.4999,-4.23943 -1.4999,-7.00636v-14.46474c0,-1.01363 0.11643,-2.08205 0.34929,-3.20526c0.23286,-1.12321 0.59585,-2.23957 1.08897,-3.34908c0.49312,-1.10951 1.13006,-2.17108 1.91083,-3.18471c0.78077,-1.01363 1.72591,-1.90398 2.83542,-2.67105c1.10951,-0.76707 2.39024,-1.38346 3.8422,-1.84919c1.45195,-0.46572 3.09567,-0.69858 4.93116,-0.69858h28.97058v10.68419h-28.97058c-1.39716,0 -2.45873,0.35614 -3.18471,1.06842c-0.72598,0.71228 -1.08897,1.80809 -1.08897,3.28744v14.38256c0,1.39716 0.36984,2.46558 1.10951,3.20526c0.73967,0.73967 1.82179,1.10951 3.24635,1.10951h28.88839z" data-paper-data="{&quot;elementType&quot;:&quot;letter&quot;,&quot;baseline&quot;:52.783203125,&quot;baselineProportion&quot;:1,&quot;fontSize&quot;:100}"></path><path d="M119.06304,181.60053h-28.97058c-1.47935,0 -3.09567,-0.26026 -4.84898,-0.78077c-1.7533,-0.52051 -3.37648,-1.37662 -4.86952,-2.56831c-1.49305,-1.1917 -2.73953,-2.73953 -3.73946,-4.64351c-0.99993,-1.90398 -1.4999,-4.23943 -1.4999,-7.00636v-14.46474c0,-1.01363 0.11643,-2.08205 0.34929,-3.20526c0.23286,-1.12321 0.59585,-2.23957 1.08897,-3.34908c0.49312,-1.10951 1.13006,-2.17108 1.91083,-3.18471c0.78077,-1.01363 1.72591,-1.90398 2.83542,-2.67105c1.10951,-0.76707 2.39024,-1.38346 3.8422,-1.84919c1.45195,-0.46572 3.09567,-0.69858 4.93116,-0.69858h28.97058v10.68419h-28.97058c-1.39716,0 -2.45873,0.35614 -3.18471,1.06842c-0.72598,0.71228 -1.08897,1.80809 -1.08897,3.28744v14.38256c0,1.39716 0.36984,2.46558 1.10951,3.20526c0.73967,0.73967 1.82179,1.10951 3.24635,1.10951h28.88839z" data-paper-data="{&quot;elementType&quot;:&quot;letter&quot;,&quot;baseline&quot;:52.783203125,&quot;baselineProportion&quot;:1,&quot;fontSize&quot;:100}"></path><path d="M170.8958,181.60053h-10.68419v-29.4637c0,-1.39716 -0.35614,-2.45873 -1.06842,-3.18471c-0.71228,-0.72598 -1.7807,-1.08897 -3.20526,-1.08897h-19.27263v-10.68419h19.27263c1.01363,0 2.08205,0.11643 3.20526,0.34929c1.12321,0.23286 2.23957,0.59585 3.34908,1.08897c1.10951,0.49312 2.17108,1.13006 3.18471,1.91083c1.01363,0.78077 1.90398,1.72591 2.67105,2.83542c0.76707,1.10951 1.38346,2.39024 1.84919,3.8422c0.46572,1.45195 0.69858,3.09567 0.69858,4.93116v29.4637M132.35055,181.60053h-10.68419v-63.20106h10.68419z" data-paper-data="{&quot;elementType&quot;:&quot;letter&quot;,&quot;baseline&quot;:75.09765625,&quot;baselineProportion&quot;:1,&quot;fontSize&quot;:100}"></path><path d="M223.6737,181.60053h-10.68419v-29.4637c0,-1.39716 -0.35614,-2.45873 -1.06842,-3.18471c-0.71228,-0.72598 -1.7807,-1.08897 -3.20526,-1.08897h-19.27263v-10.68419h19.27263c1.01363,0 2.08205,0.11643 3.20526,0.34929c1.12321,0.23286 2.23957,0.59585 3.34908,1.08897c1.10951,0.49312 2.17108,1.13006 3.18471,1.91083c1.01363,0.78077 1.90398,1.72591 2.67105,2.83542c0.76707,1.10951 1.38346,2.39024 1.84919,3.8422c0.46572,1.45195 0.69858,3.09567 0.69858,4.93116v29.4637M185.12845,181.60053h-10.68419v-63.20106h10.68419z" data-paper-data="{&quot;elementType&quot;:&quot;letter&quot;,&quot;baseline&quot;:75.09765625,&quot;baselineProportion&quot;:1,&quot;fontSize&quot;:100}"></path><path d="M270,166.60158c0,1.83549 -0.23286,3.48606 -0.69858,4.95171c-0.46572,1.46565 -1.08212,2.75323 -1.84919,3.86274c-0.76707,1.10951 -1.65742,2.05465 -2.67105,2.83542c-1.01363,0.78077 -2.0752,1.41771 -3.18471,1.91083c-1.10951,0.49312 -2.23272,0.8561 -3.36963,1.08897c-1.13691,0.23286 -2.21217,0.34929 -3.2258,0.34929h-28.92949v-10.68419h28.8473c1.45195,0 2.54777,-0.36984 3.28744,-1.10951c0.73967,-0.73967 1.10951,-1.80809 1.10951,-3.20526c-0.13698,-2.84912 -1.57523,-4.27367 -4.31477,-4.27367h-16.56049c-2.356,0 -4.35586,-0.41093 -5.99958,-1.23279c-1.64372,-0.82186 -2.97924,-1.84919 -4.00657,-3.08198c-1.02733,-1.23279 -1.767,-2.56146 -2.21902,-3.98602c-0.45202,-1.42456 -0.67803,-2.75323 -0.67803,-3.98602c0,-2.3834 0.42463,-4.3901 1.27388,-6.02013c0.84926,-1.63002 1.91767,-2.95185 3.20526,-3.96548c1.28758,-1.01363 2.68474,-1.74645 4.19149,-2.19848c1.50674,-0.45202 2.9176,-0.67803 4.23258,-0.67803h26.25844v10.68419h-26.17625c-0.54791,0 -0.97938,0.06164 -1.29443,0.18492c-0.31505,0.12328 -0.54791,0.28765 -0.69858,0.49312c-0.15067,0.20547 -0.23971,0.42463 -0.2671,0.65749c-0.0274,0.23286 -0.04109,0.45887 -0.04109,0.67803c0.0274,0.43833 0.10958,0.78077 0.24656,1.02733c0.13698,0.24656 0.3082,0.42463 0.51366,0.53421c0.20547,0.10958 0.43833,0.17122 0.69858,0.18492c0.26026,0.0137 0.51366,0.02055 0.76022,0.02055h16.56049c2.73953,0 5.06814,0.49312 6.98581,1.47935c1.91767,0.98623 3.46551,2.22587 4.64351,3.71892c1.178,1.49305 2.0341,3.11622 2.56831,4.86952c0.53421,1.7533 0.80131,3.38333 0.80131,4.89007z" data-paper-data="{&quot;elementType&quot;:&quot;letter&quot;,&quot;baseline&quot;:52.783203125,&quot;baselineProportion&quot;:1,&quot;fontSize&quot;:100}"></path></g></g></g></g></g></svg>