<svg version="1.1" xmlns="http://www.w3.org/2000/svg" xmlns:xlink="http://www.w3.org/1999/xlink" width="300" height="300"><g data-paper-data="{&quot;description&quot;:&quot;Logo for CCHHS\n==============\n\nThis logo was generated by MarkMaker and is composed of elements designed by others.\n\nThe font is Nova Round designed by Wojciech Kalinowski and released under the OFL license via Google Fonts: https://www.google.com/fonts/specimen/Nova Round. The font includes this copyright statement: Copyright (c) 2011, wmk69 (wmk69@o2.pl) with Reserved Font Names 'NovaRound' and 'Nova Round'. This Font Software is licensed under the SIL Open Font License, Version 1.1. This license is available with a FAQ at\n\nMarkMaker uses semantic data from the Princeton University WordNet database http://wordnet.princeton.edu and font descriptions from Google Fonts https://www.google.com/fonts.\n\nThis design is inspired by designs that past users of MarkMaker have liked. As a result, it may be visually similar to past or future designs generated by the system. There is no guarantee that it is unique, original, or suitable in any way for use as a logo.\n\n&quot;}" fill="none" fill-rule="nonzero" stroke="none" stroke-width="none" stroke-linecap="butt" stroke-linejoin="miter" stroke-miterlimit="10" stroke-dasharray="" stroke-dashoffset="0" font-family="none" font-weight="none" font-size="none" text-anchor="none" style="mix-blend-mode: normal"><path d="M30,150c0,-66.27417 53.72583,-120 120,-120c66.27417,0 120,53.72583 120,120c0,66.27417 -53.72583,120 -120,120c-66.27417,0 -120,-53.72583 -120,-120z" fill="#267a7a" stroke-width="0"></path><g data-paper-data="{&quot;elementType&quot;:&quot;logo&quot;}" fill="#ffffff" stroke-width="1"><g data-paper-data="{&quot;elementType&quot;:&quot;text&quot;}"><g data-paper-data="{&quot;baseline&quot;:75.68359375,&quot;elementType&quot;:&quot;row&quot;}"><g data-paper-data="{&quot;baselineProportion&quot;:0.9748427672955975,&quot;fontSize&quot;:100,&quot;baseline&quot;:75.68359375,&quot;elementType&quot;:&quot;word&quot;}"><path d="M82.98088,161.12232v2.24585c0,3.92133 -1.47347,7.3317 -4.42041,10.23111c-2.75681,2.68552 -6.21472,4.02828 -10.3737,4.02828c-4.11146,0 -7.56936,-1.34276 -10.3737,-4.02828c-2.94694,-2.85188 -4.42041,-6.26225 -4.42041,-10.23111v-12.12048c0,-3.9451 1.47347,-7.35547 4.42041,-10.23111c2.75681,-2.68552 6.21472,-4.02828 10.3737,-4.02828c4.06393,0 7.52183,1.34276 10.3737,4.02828c2.94694,2.78058 4.42041,5.84635 4.42041,9.19731v0.0713l-6.77321,3.20836h-0.35648v-2.24585c0,-2.73305 -0.74268,-4.73531 -2.22803,-6.00677c-1.48535,-1.27146 -3.29748,-1.90719 -5.43639,-1.90719c-2.13891,0 -3.95104,0.63573 -5.43639,1.90719c-1.48535,1.27146 -2.22803,3.27372 -2.22803,6.00677v12.12048c0,2.73305 0.74268,4.73531 2.22803,6.00677c1.48535,1.27146 3.29748,1.90719 5.43639,1.90719c2.13891,0 3.95104,-0.64167 5.43639,-1.92502c1.48535,-1.28334 2.22803,-2.95882 2.22803,-5.02643l6.77321,-3.20836z" data-paper-data="{&quot;elementType&quot;:&quot;letter&quot;,&quot;baseline&quot;:54.6875,&quot;baselineProportion&quot;:0.9824561403508771,&quot;fontSize&quot;:100}"></path><path d="M123.26365,161.12232v2.24585c0,3.92133 -1.47347,7.3317 -4.42041,10.23111c-2.75681,2.68552 -6.21472,4.02828 -10.3737,4.02828c-4.11146,0 -7.56936,-1.34276 -10.3737,-4.02828c-2.94694,-2.85188 -4.42041,-6.26225 -4.42041,-10.23111v-12.12048c0,-3.9451 1.47347,-7.35547 4.42041,-10.23111c2.75681,-2.68552 6.21472,-4.02828 10.3737,-4.02828c4.06393,0 7.52183,1.34276 10.3737,4.02828c2.94694,2.78058 4.42041,5.84635 4.42041,9.19731v0.0713l-6.77321,3.20836h-0.35648v-2.24585c0,-2.73305 -0.74268,-4.73531 -2.22803,-6.00677c-1.48535,-1.27146 -3.29748,-1.90719 -5.43639,-1.90719c-2.13891,0 -3.95104,0.63573 -5.43639,1.90719c-1.48535,1.27146 -2.22803,3.27372 -2.22803,6.00677v12.12048c0,2.73305 0.74268,4.73531 2.22803,6.00677c1.48535,1.27146 3.29748,1.90719 5.43639,1.90719c2.13891,0 3.95104,-0.64167 5.43639,-1.92502c1.48535,-1.28334 2.22803,-2.95882 2.22803,-5.02643l6.77321,-3.20836z" data-paper-data="{&quot;elementType&quot;:&quot;letter&quot;,&quot;baseline&quot;:54.6875,&quot;baselineProportion&quot;:0.9824561403508771,&quot;fontSize&quot;:100}"></path><path d="M135.74061,178.34053v-53.4727l6.77321,-3.20836h0.35648v18.35896c1.78242,-2.02008 4.33723,-3.03012 7.66442,-3.03012c4.11146,0 7.56936,1.34276 10.3737,4.02828c2.94694,2.85188 4.42041,6.26225 4.42041,10.23111v23.88447l-6.77321,3.20836h-0.35648v-27.09284c0,-2.73305 -0.74268,-4.73531 -2.22803,-6.00677c-1.48535,-1.27146 -3.29748,-1.90719 -5.43639,-1.90719c-2.13891,0 -3.95104,0.63573 -5.43639,1.90719c-1.48535,1.27146 -2.22803,3.27372 -2.22803,6.00677v23.88447l-6.77321,3.20836z" data-paper-data="{&quot;elementType&quot;:&quot;letter&quot;,&quot;baseline&quot;:75.68359375,&quot;baselineProportion&quot;:0.9748427672955975,&quot;fontSize&quot;:100}"></path><path d="M177.80581,178.34053v-53.4727l6.77321,-3.20836h0.35648v18.35896c1.78242,-2.02008 4.33723,-3.03012 7.66442,-3.03012c4.11146,0 7.56936,1.34276 10.3737,4.02828c2.94694,2.85188 4.42041,6.26225 4.42041,10.23111v23.88447l-6.77321,3.20836h-0.35648v-27.09284c0,-2.73305 -0.74268,-4.73531 -2.22803,-6.00677c-1.48535,-1.27146 -3.29748,-1.90719 -5.43639,-1.90719c-2.13891,0 -3.95104,0.63573 -5.43639,1.90719c-1.48535,1.27146 -2.22803,3.27372 -2.22803,6.00677v23.88447l-6.77321,3.20836z" data-paper-data="{&quot;elementType&quot;:&quot;letter&quot;,&quot;baseline&quot;:75.68359375,&quot;baselineProportion&quot;:0.9748427672955975,&quot;fontSize&quot;:100}"></path><path d="M217.01912,164.33068l6.77321,-3.20836h0.35648v2.85188c0,2.66175 0.77238,4.68183 2.31715,6.06024c1.47347,1.30711 3.25589,1.96067 5.34727,1.96067c2.4241,0 4.31346,-0.77238 5.66811,-2.31715c1.42594,-1.61606 2.13891,-3.37472 2.13891,-5.27597c0,-2.04385 -0.7605,-3.65991 -2.2815,-4.84819c-1.30711,-1.02192 -3.16083,-1.53288 -5.56116,-1.53288c-4.23029,0 -7.56936,-0.92686 -10.01722,-2.78058c-2.16267,-1.61606 -3.24401,-4.12334 -3.24401,-7.52183c0,-3.30342 1.50912,-6.03647 4.52736,-8.19915c2.3528,-1.68736 5.27597,-2.53104 8.76952,-2.53104c3.35096,0 6.26225,1.04569 8.73388,3.13707c1.90125,1.63983 3.07765,3.54108 3.5292,5.70376l-6.77321,3.20836h-0.35648v-1.03381c0,-1.23581 -0.35648,-2.29338 -1.06945,-3.17271c-1.14075,-1.47347 -2.7687,-2.21021 -4.88384,-2.21021c-1.68736,0 -3.05983,0.52879 -4.1174,1.58636c-1.05757,1.05757 -1.58636,2.22803 -1.58636,3.51137c0,1.521 0.64167,2.73305 1.92502,3.63614c0.71297,0.49908 2.23397,0.74862 4.563,0.74862c4.82443,0 8.44869,1.1051 10.87278,3.31531c2.63799,2.40033 3.95698,5.52551 3.95698,9.37555c0,3.08953 -1.36652,6.03647 -4.09957,8.84082c-2.59046,2.66175 -6.1553,3.99263 -10.69454,3.99263c-4.11146,0 -7.56936,-1.14075 -10.3737,-3.42225c-2.94694,-2.40033 -4.42041,-5.69187 -4.42041,-9.87463z" data-paper-data="{&quot;elementType&quot;:&quot;letter&quot;,&quot;baseline&quot;:54.6875,&quot;baselineProportion&quot;:0.9824561403508771,&quot;fontSize&quot;:100}"></path></g></g></g></g></g></svg>