<svg version="1.1" xmlns="http://www.w3.org/2000/svg" xmlns:xlink="http://www.w3.org/1999/xlink" width="300" height="300"><g data-paper-data="{&quot;description&quot;:&quot;Logo for CCHHS\n==============\n\nThis logo was generated by MarkMaker and is composed of elements designed by others.\n\nThe font is Wendy One designed by Alejandro Inler and released under the OFL license via Google Fonts: https://www.google.com/fonts/specimen/Wendy One. The font includes this copyright statement: Copyright (c) 2012, Alejandro Inler (alejandroinler@gmail.com), with Reserved Font Name 'Wendy'\n\nMarkMaker uses semantic data from the Princeton University WordNet database http://wordnet.princeton.edu and font descriptions from Google Fonts https://www.google.com/fonts.\n\nThis design is inspired by designs that past users of MarkMaker have liked. As a result, it may be visually similar to past or future designs generated by the system. There is no guarantee that it is unique, original, or suitable in any way for use as a logo.\n\n&quot;}" fill="#063a3a" fill-rule="nonzero" stroke="none" stroke-width="1" stroke-linecap="butt" stroke-linejoin="miter" stroke-miterlimit="10" stroke-dasharray="" stroke-dashoffset="0" font-family="none" font-weight="none" font-size="none" text-anchor="none" style="mix-blend-mode: normal"><g data-paper-data="{&quot;elementType&quot;:&quot;logo&quot;}"><g data-paper-data="{&quot;elementType&quot;:&quot;text&quot;}"><g data-paper-data="{&quot;baseline&quot;:64.9,&quot;elementType&quot;:&quot;row&quot;}"><g data-paper-data="{&quot;baselineProportion&quot;:0.9848254931714719,&quot;fontSize&quot;:100,&quot;baseline&quot;:64.9,&quot;elementType&quot;:&quot;word&quot;}"><path d="M76.53902,235.55684c3.13693,0 6.53077,0.56789 10.18151,1.70368c3.65074,1.13579 6.63894,2.56904 8.96459,4.29976l-3.40736,7.22035c-2.37974,-0.91945 -5.00286,-1.37917 -7.86937,-1.37917c-8.00458,0 -12.00688,4.65131 -12.00688,13.95394c0,4.48906 1.09522,7.99106 3.28567,10.50602c2.19044,2.51495 4.84061,3.77243 7.9505,3.77243c3.10989,0 6.01696,-0.64902 8.72121,-1.94706l3.65074,6.97697c-5.46259,4.00229 -11.97983,6.00344 -19.55174,6.00344c-7.5719,0 -13.75112,-2.21749 -18.53764,-6.65246c-4.78652,-4.43497 -7.17979,-10.80348 -7.17979,-19.10554c0,-8.30205 2.3527,-14.60296 7.0581,-18.90272c4.7054,-4.29976 10.95222,-6.44964 18.74046,-6.44964z" data-paper-data="{&quot;elementType&quot;:&quot;letter&quot;,&quot;baseline&quot;:62,&quot;baselineProportion&quot;:0.9841269841269841,&quot;fontSize&quot;:100}"></path><path d="M130.32657,280.17698c-4.05638,4.3268 -9.4784,6.4902 -16.26607,6.4902c-6.78767,0 -12.04744,-1.82537 -15.77931,-5.47611c-3.73187,-3.65074 -5.5978,-8.80234 -5.5978,-15.4548c0,-6.65246 2.00115,-11.56067 6.00344,-14.72465c4.00229,-3.16397 9.00516,-4.74596 15.00859,-4.74596c2.542,0 4.98934,0.24338 7.34204,0.73015c2.3527,0.48677 4.0699,1.00057 5.1516,1.54142l1.62255,0.73015l-1.78481,8.35614c-2.21749,-0.64902 -4.50258,-0.97353 -6.85528,-0.97353c-2.3527,0 -4.48906,0.74367 -6.40908,2.23101c-1.92002,1.48734 -2.88003,3.77243 -2.88003,6.85528c0,6.92288 2.67721,10.38432 8.03163,10.38432c1.40621,0 2.75834,-0.17578 4.05638,-0.52733c1.29804,-0.35155 2.24453,-0.71663 2.83946,-1.09522l0.8924,-0.48677z" data-paper-data="{&quot;elementType&quot;:&quot;letter&quot;,&quot;baseline&quot;:48.800000000000004,&quot;baselineProportion&quot;:0.9799196787148594,&quot;fontSize&quot;:100}"></path><path d="M159.12685,246.26567c3.08285,0 5.5978,0.90592 7.54486,2.71777c1.94706,1.81185 3.25862,3.98877 3.93469,6.53077c0.67606,2.542 1.01409,5.7871 1.01409,9.7353c0,3.94821 -0.62198,10.817 -1.86593,20.60639h-14.19732l-1.78481,-18.82159c-0.32451,-3.2451 -0.75719,-5.4085 -1.29804,-6.4902c-0.54085,-1.0817 -1.4603,-1.62255 -2.75834,-1.62255c-3.19102,0 -4.92174,2.73129 -5.19216,8.19388l-0.81128,18.74046h-14.92747l-2.19044,-52.65177h19.30835l-0.81128,21.09316c1.73072,-3.46144 4.59723,-5.86823 8.59952,-7.22035c1.67664,-0.54085 3.48848,-0.81128 5.43554,-0.81128z" data-paper-data="{&quot;elementType&quot;:&quot;letter&quot;,&quot;baseline&quot;:64.9,&quot;baselineProportion&quot;:1,&quot;fontSize&quot;:100}"></path><path d="M202.85459,246.26567c3.08285,0 5.5978,0.90592 7.54486,2.71777c1.94706,1.81185 3.25862,3.98877 3.93469,6.53077c0.67606,2.542 1.01409,5.7871 1.01409,9.7353c0,3.94821 -0.62198,10.817 -1.86593,20.60639h-14.19732l-1.78481,-18.82159c-0.32451,-3.2451 -0.75719,-5.4085 -1.29804,-6.4902c-0.54085,-1.0817 -1.4603,-1.62255 -2.75834,-1.62255c-3.19102,0 -4.92174,2.73129 -5.19216,8.19388l-0.81128,18.74046h-14.92747l-2.19044,-52.65177h19.30835l-0.81128,21.09316c1.73072,-3.46144 4.59723,-5.86823 8.59952,-7.22035c1.67664,-0.54085 3.48848,-0.81128 5.43554,-0.81128z" data-paper-data="{&quot;elementType&quot;:&quot;letter&quot;,&quot;baseline&quot;:64.9,&quot;baselineProportion&quot;:1,&quot;fontSize&quot;:100}"></path><path d="M249.25954,273.68678c0,3.08285 -1.02762,5.65189 -3.08285,7.70712c-2.05523,2.05523 -4.42145,3.44792 -7.09866,4.17807c-2.67721,0.73015 -5.25977,1.09522 -7.74768,1.09522c-2.48791,0 -4.66483,-0.16226 -6.53077,-0.48677c-1.86593,-0.32451 -3.44792,-0.70311 -4.74596,-1.13579c-2.37974,-0.91945 -4.27272,-1.78481 -5.67893,-2.59608l-0.73015,-0.48677l3.56961,-7.38261c3.2451,1.83889 5.9764,2.75834 8.19388,2.75834c2.21749,0 3.32623,-0.91945 3.32623,-2.75834c0,-0.91945 -0.70311,-1.86593 -2.10932,-2.83946c-1.40621,-0.97353 -2.93411,-1.89298 -4.58371,-2.75834c-1.64959,-0.86536 -3.1775,-2.19044 -4.58371,-3.97525c-1.40621,-1.78481 -2.10932,-3.84004 -2.10932,-6.16569c0,-4.16455 1.56847,-7.30148 4.7054,-9.41079c3.13693,-2.10932 7.27444,-3.16397 12.41251,-3.16397c2.59608,0 5.13808,0.21634 7.62599,0.64902c2.48791,0.43268 4.35384,0.86536 5.5978,1.29804l1.78481,0.73015l-2.02819,8.19388c-3.08285,-1.13579 -5.70597,-1.70368 -7.86937,-1.70368c-2.1634,0 -3.2451,0.83832 -3.2451,2.51495c0,0.81128 0.51381,1.58199 1.54142,2.31213c1.02762,0.73015 2.27157,1.44677 3.73187,2.14988c1.4603,0.70311 2.92059,1.50086 4.38089,2.39326c1.4603,0.8924 2.70425,2.10932 3.73187,3.65074c1.02762,1.54142 1.54142,3.28567 1.54142,5.23273z" data-paper-data="{&quot;elementType&quot;:&quot;letter&quot;,&quot;baseline&quot;:48.800000000000004,&quot;baselineProportion&quot;:0.9799196787148594,&quot;fontSize&quot;:100}"></path></g></g></g></g><g data-paper-data="{&quot;elementType&quot;:&quot;emblem&quot;}"><g data-paper-data="{&quot;baselineProportion&quot;:0.9841269841269841,&quot;fontSize&quot;:100,&quot;baseline&quot;:62,&quot;elementType&quot;:&quot;word&quot;}"><path d="M161.09999,13.33281c11.00512,0 22.91152,1.99231 35.7192,5.97692c12.80768,3.98461 23.29101,9.01281 31.44998,15.0846l-11.95384,25.33075c-8.34871,-3.22564 -17.55127,-4.83846 -27.60767,-4.83846c-28.08203,0 -42.12305,16.31794 -42.12305,48.95381c0,15.74871 3.8423,28.03459 11.52691,36.85766c7.68461,8.82307 16.98204,13.23461 27.89229,13.23461c10.91025,0 21.10896,-2.27692 30.59613,-6.83076l12.80768,24.4769c-19.16409,14.04102 -42.02817,21.06152 -68.59226,21.06152c-26.56408,0 -48.24227,-7.77948 -65.03457,-23.33844c-16.7923,-15.55896 -25.18844,-37.90125 -25.18844,-67.02687c0,-29.12562 8.25384,-51.23073 24.76152,-66.31534c16.50768,-15.0846 38.42305,-22.62691 65.74611,-22.62691z" data-paper-data="{&quot;elementType&quot;:&quot;letter&quot;,&quot;baseline&quot;:62,&quot;baselineProportion&quot;:0.9841269841269841,&quot;fontSize&quot;:100}"></path></g></g></g></svg>