<svg version="1.1" xmlns="http://www.w3.org/2000/svg" xmlns:xlink="http://www.w3.org/1999/xlink" width="300" height="300"><g data-paper-data="{&quot;description&quot;:&quot;Logo for CCHHS\n==============\n\nThis logo was generated by MarkMaker and is composed of elements designed by others.\n\nThe font is Monsieur La Doulaise Regular designed by Sudtipos and released under the OFL license via Google Fonts: https://www.google.com/fonts/specimen/Monsieur La Doulaise. The font includes this copyright statement: Copyright (c) 2006 Alejandro Paul (sudtipos@sudtipos.com), with Reserved Font Name \\\&quot;MonsieurLaDoulaise\\\n\nMarkMaker uses semantic data from the Princeton University WordNet database http://wordnet.princeton.edu and font descriptions from Google Fonts https://www.google.com/fonts.\n\nThis design is inspired by designs that past users of MarkMaker have liked. As a result, it may be visually similar to past or future designs generated by the system. There is no guarantee that it is unique, original, or suitable in any way for use as a logo.\n\n&quot;}" fill="none" fill-rule="nonzero" stroke="none" stroke-width="none" stroke-linecap="butt" stroke-linejoin="miter" stroke-miterlimit="10" stroke-dasharray="" stroke-dashoffset="0" font-family="none" font-weight="none" font-size="none" text-anchor="none" style="mix-blend-mode: normal"><path d="M30,150c0,-66.27417 53.72583,-120 120,-120c66.27417,0 120,53.72583 120,120c0,66.27417 -53.72583,120 -120,120c-66.27417,0 -120,-53.72583 -120,-120z" fill="#267a7a" stroke-width="0"></path><g data-paper-data="{&quot;elementType&quot;:&quot;logo&quot;}" fill="#ffffff" stroke-width="1"><g data-paper-data="{&quot;elementType&quot;:&quot;text&quot;}"><g data-paper-data="{&quot;baseline&quot;:57.2,&quot;elementType&quot;:&quot;row&quot;}"><g data-paper-data="{&quot;baselineProportion&quot;:0.9407894736842106,&quot;fontSize&quot;:100,&quot;baseline&quot;:57.2,&quot;elementType&quot;:&quot;word&quot;}"><path d="M61.69479,181.56496c0,2.21508 1.59742,3.32263 4.79225,3.32263c3.19483,0 7.30552,-1.04365 12.33206,-3.13094c5.02654,-2.08729 9.6697,-4.66446 13.92948,-7.7315l0.25559,1.9169c-4.43017,3.23743 -9.39281,5.92109 -14.88793,8.05098c-5.49511,2.12989 -10.15957,3.19483 -13.99337,3.19483c-5.11173,0 -7.6676,-1.8743 -7.6676,-5.62291c0,-4.08939 3.19483,-8.62605 9.5845,-13.60999c6.38967,-4.98394 12.56635,-7.47591 18.53004,-7.47591c2.89665,0 4.34497,1.06494 4.34497,3.19483c0,1.44832 -0.53247,2.81145 -1.59742,4.08939c-1.06494,1.27793 -2.40677,1.9169 -4.02549,1.9169c-1.61872,0 -2.42807,-0.42598 -2.42807,-1.27793c0,-0.85196 0.46858,-1.61872 1.40573,-2.30028c0.93715,-0.68156 1.9808,-1.04365 3.13094,-1.08624c1.15014,-0.0426 1.72521,-0.44728 1.72521,-1.21404c0,-0.42598 -0.25559,-0.83066 -0.76676,-1.21404c-0.51117,-0.38338 -1.15014,-0.57507 -1.9169,-0.57507c-4.08939,0 -8.90294,2.44937 -14.44065,7.34812c-5.53771,4.89875 -8.30657,8.96683 -8.30657,12.20427z" data-paper-data="{&quot;elementType&quot;:&quot;letter&quot;,&quot;baseline&quot;:18.599999999999994,&quot;baselineProportion&quot;:0.8899521531100479,&quot;fontSize&quot;:100}"></path><path d="M94.1543,181.56496c0,2.21508 1.59742,3.32263 4.79225,3.32263c3.19483,0 7.30552,-1.04365 12.33206,-3.13094c5.02654,-2.08729 9.6697,-4.66446 13.92948,-7.7315l0.25559,1.9169c-4.43017,3.23743 -9.39281,5.92109 -14.88793,8.05098c-5.49511,2.12989 -10.15957,3.19483 -13.99337,3.19483c-5.11173,0 -7.6676,-1.8743 -7.6676,-5.62291c0,-4.08939 3.19483,-8.62605 9.5845,-13.60999c6.38967,-4.98394 12.56635,-7.47591 18.53004,-7.47591c2.89665,0 4.34497,1.06494 4.34497,3.19483c0,1.44832 -0.53247,2.81145 -1.59742,4.08939c-1.06494,1.27793 -2.40677,1.9169 -4.02549,1.9169c-1.61872,0 -2.42807,-0.42598 -2.42807,-1.27793c0,-0.85196 0.46858,-1.61872 1.40573,-2.30028c0.93715,-0.68156 1.9808,-1.04365 3.13094,-1.08624c1.15014,-0.0426 1.72521,-0.44728 1.72521,-1.21404c0,-0.42598 -0.25559,-0.83066 -0.76676,-1.21404c-0.51117,-0.38338 -1.15014,-0.57507 -1.9169,-0.57507c-4.08939,0 -8.90294,2.44937 -14.44065,7.34812c-5.53771,4.89875 -8.30657,8.96683 -8.30657,12.20427z" data-paper-data="{&quot;elementType&quot;:&quot;letter&quot;,&quot;baseline&quot;:18.599999999999994,&quot;baselineProportion&quot;:0.8899521531100479,&quot;fontSize&quot;:100}"></path><path d="M143.86592,183.48186c0,1.10754 0.57507,1.66131 1.72521,1.66131c1.15014,0 2.87535,-0.51117 5.17563,-1.53352c2.30028,-1.02235 4.34497,-2.06599 6.13408,-3.13094c1.78911,-1.06494 3.9403,-2.38548 6.45356,-3.96159c2.51327,-1.57612 3.8551,-2.40677 4.02549,-2.49197l0.25559,1.9169c-11.5014,7.6676 -19.55238,11.5014 -24.15295,11.5014c-2.21508,0 -3.32263,-1.10754 -3.32263,-3.32263c0,-2.21508 1.38443,-4.66446 4.15328,-7.34812c2.76886,-2.68366 5.53771,-5.09044 8.30657,-7.22032c2.76886,-2.12989 4.15328,-3.66341 4.15328,-4.60056c0,-0.34078 -0.29818,-0.51117 -0.89455,-0.51117c-1.9595,0 -7.28422,2.44937 -15.97417,7.34812c-8.68995,4.89875 -14.35545,8.49826 -16.99652,10.79854l-4.60056,3.8338c-0.34078,0.34078 -1.19274,0.51117 -2.55587,0.51117c-1.36313,0 -2.04469,-0.25559 -2.04469,-0.76676c0,-0.25559 0.17039,-0.59637 0.51117,-1.02235c8.94554,-10.05308 18.95602,-20.57473 30.03144,-31.56496c11.07542,-10.99023 21.91656,-20.80902 32.52341,-29.45637c10.60685,-8.64735 17.82717,-12.97103 21.66097,-12.97103c2.04469,0 3.06704,0.63897 3.06704,1.9169c0,2.72626 -4.28108,7.98709 -12.84323,15.78248c-8.56216,7.79539 -18.16796,15.61209 -28.8174,23.45008c-10.64945,7.83799 -19.80797,14.05727 -27.47557,18.65783c-2.98185,3.40782 -4.68576,5.58031 -5.11173,6.51746c0.34078,0 0.59637,-0.0426 0.76676,-0.12779c5.45252,-3.8338 11.11802,-7.24162 16.99652,-10.22347c5.87849,-2.98185 9.5845,-4.47277 11.11802,-4.47277c1.53352,0 2.57717,0.29818 3.13094,0.89455c0.55377,0.59637 0.83066,1.23534 0.83066,1.9169c0,2.04469 -1.34183,4.34497 -4.02549,6.90084c-2.68366,2.55587 -5.38862,4.85615 -8.11488,6.90084c-2.72626,2.04469 -4.08939,3.45042 -4.08939,4.21718zM198.81706,114.09007c0,-0.59637 -0.42598,-0.89455 -1.27793,-0.89455c-3.40782,0 -11.82089,6.09148 -25.23919,18.27445c-13.4183,12.18297 -25.45218,23.98255 -36.10162,35.39876c12.26816,-7.92319 25.77166,-18.01886 40.5105,-30.28703c14.73883,-12.26816 22.10825,-19.76537 22.10825,-22.49163" data-paper-data="{&quot;elementType&quot;:&quot;letter&quot;,&quot;baseline&quot;:57.2,&quot;baselineProportion&quot;:0.9581239530988275,&quot;fontSize&quot;:100}"></path><path d="M185.90993,183.48186c0,1.10754 0.57507,1.66131 1.72521,1.66131c1.15014,0 2.87535,-0.51117 5.17563,-1.53352c2.30028,-1.02235 4.34497,-2.06599 6.13408,-3.13094c1.78911,-1.06494 3.9403,-2.38548 6.45356,-3.96159c2.51327,-1.57612 3.8551,-2.40677 4.02549,-2.49197l0.25559,1.9169c-11.5014,7.6676 -19.55238,11.5014 -24.15295,11.5014c-2.21508,0 -3.32263,-1.10754 -3.32263,-3.32263c0,-2.21508 1.38443,-4.66446 4.15328,-7.34812c2.76886,-2.68366 5.53771,-5.09044 8.30657,-7.22032c2.76886,-2.12989 4.15328,-3.66341 4.15328,-4.60056c0,-0.34078 -0.29818,-0.51117 -0.89455,-0.51117c-1.9595,0 -7.28422,2.44937 -15.97417,7.34812c-8.68995,4.89875 -14.35545,8.49826 -16.99652,10.79854l-4.60056,3.8338c-0.34078,0.34078 -1.19274,0.51117 -2.55587,0.51117c-1.36313,0 -2.04469,-0.25559 -2.04469,-0.76676c0,-0.25559 0.17039,-0.59637 0.51117,-1.02235c8.94554,-10.05308 18.95602,-20.57473 30.03144,-31.56496c11.07542,-10.99023 21.91656,-20.80902 32.52341,-29.45637c10.60685,-8.64735 17.82717,-12.97103 21.66097,-12.97103c2.04469,0 3.06704,0.63897 3.06704,1.9169c0,2.72626 -4.28108,7.98709 -12.84323,15.78248c-8.56216,7.79539 -18.16796,15.61209 -28.8174,23.45008c-10.64945,7.83799 -19.80797,14.05727 -27.47557,18.65783c-2.98185,3.40782 -4.68576,5.58031 -5.11173,6.51746c0.34078,0 0.59637,-0.0426 0.76676,-0.12779c5.45252,-3.8338 11.11802,-7.24162 16.99652,-10.22347c5.87849,-2.98185 9.5845,-4.47277 11.11802,-4.47277c1.53352,0 2.57717,0.29818 3.13094,0.89455c0.55377,0.59637 0.83066,1.23534 0.83066,1.9169c0,2.04469 -1.34183,4.34497 -4.02549,6.90084c-2.68366,2.55587 -5.38862,4.85615 -8.11488,6.90084c-2.72626,2.04469 -4.08939,3.45042 -4.08939,4.21718zM240.86108,114.09007c0,-0.59637 -0.42598,-0.89455 -1.27793,-0.89455c-3.40782,0 -11.82089,6.09148 -25.23919,18.27445c-13.4183,12.18297 -25.45218,23.98255 -36.10162,35.39876c12.26816,-7.92319 25.77166,-18.01886 40.5105,-30.28703c14.73883,-12.26816 22.10825,-19.76537 22.10825,-22.49163" data-paper-data="{&quot;elementType&quot;:&quot;letter&quot;,&quot;baseline&quot;:57.2,&quot;baselineProportion&quot;:0.9581239530988275,&quot;fontSize&quot;:100}"></path><path d="M229.99864,158.56216c0.34078,-0.51117 0.74546,-0.76676 1.21404,-0.76676c0.46858,0 0.70286,0.25559 0.70286,0.76676c0,0.51117 -0.25559,1.02235 -0.76676,1.53352c-0.51117,0.51117 -0.87325,2.06599 -1.08624,4.66446c-0.21299,2.59846 -0.87325,5.7507 -1.9808,9.45671c-1.10754,3.70601 -3.02444,7.04993 -5.7507,10.03178c0,0.17039 0.17039,0.25559 0.51117,0.25559c0.59637,0 2.76886,-1.02235 6.51746,-3.06704l1.78911,-0.89455c3.23743,-1.78911 6.68785,-3.96159 10.35126,-6.51746l0.25559,1.9169c-13.29051,8.60475 -23.47138,12.90713 -30.54261,12.90713c-2.81145,0 -4.87745,-0.59637 -6.19798,-1.78911c-1.32053,-1.19274 -1.9808,-2.51327 -1.9808,-3.96159c0,-1.44832 0.34078,-2.61976 1.02235,-3.51432c0.68156,-0.89455 1.53352,-1.34183 2.55587,-1.34183c1.27793,0 1.9169,0.68156 1.9169,2.04469c0,0.85196 -0.68156,1.61872 -2.04469,2.30028c-0.42598,0.25559 -0.63897,0.68156 -0.63897,1.27793c0,0.59637 0.48987,1.29923 1.46962,2.10859c0.97975,0.80936 2.02339,1.21404 3.13094,1.21404c3.74861,0 6.96474,-2.36418 9.6484,-7.09253c2.68366,-4.72835 4.40887,-9.43541 5.17563,-14.12117v-0.38338c-8.26397,5.62291 -13.84428,9.28632 -16.74093,10.99023l-0.38338,-1.78911c13.88688,-8.94554 21.1711,-14.35545 21.85266,-16.22976z" data-paper-data="{&quot;elementType&quot;:&quot;letter&quot;,&quot;baseline&quot;:20.700000000000003,&quot;baselineProportion&quot;:0.8518518518518521,&quot;fontSize&quot;:100}"></path></g></g></g></g></g></svg>