<svg version="1.1" xmlns="http://www.w3.org/2000/svg" xmlns:xlink="http://www.w3.org/1999/xlink" width="300" height="300"><g data-paper-data="{&quot;description&quot;:&quot;Logo for CCHHS\n==============\n\nThis logo was generated by MarkMaker and is composed of elements designed by others.\n\nThe font is Chivo designed by Omnibus-Type and released under the OFL license via Google Fonts: https://www.google.com/fonts/specimen/Chivo. The font includes this copyright statement: Copyright (c) 2011 by Omnibus-Type (www.omnibus-type.com omnibus.type@gmail.com), with Reserved Font Name \\\&quot;Chivo\\\&quot;.\n\nMarkMaker uses semantic data from the Princeton University WordNet database http://wordnet.princeton.edu and font descriptions from Google Fonts https://www.google.com/fonts.\n\nThis design is inspired by designs that past users of MarkMaker have liked. As a result, it may be visually similar to past or future designs generated by the system. There is no guarantee that it is unique, original, or suitable in any way for use as a logo.\n\n&quot;}" fill="none" fill-rule="nonzero" stroke="none" stroke-width="none" stroke-linecap="butt" stroke-linejoin="miter" stroke-miterlimit="10" stroke-dasharray="" stroke-dashoffset="0" font-family="none" font-weight="none" font-size="none" text-anchor="none" style="mix-blend-mode: normal"><path d="M40,150c0,-16.70335 49.24868,-30.24409 110,-30.24409c60.75132,0 110,13.54074 110,30.24409c0,16.70335 -49.24868,30.24409 -110,30.24409c-60.75132,0 -110,-13.54074 -110,-30.24409z" fill="#35636f" stroke-width="0"></path><g data-paper-data="{&quot;elementType&quot;:&quot;logo&quot;}" fill="#ffffff" stroke-width="1"><g data-paper-data="{&quot;elementType&quot;:&quot;text&quot;}"><g data-paper-data="{&quot;baseline&quot;:69.60000000000001,&quot;elementType&quot;:&quot;row&quot;}"><g data-paper-data="{&quot;baselineProportion&quot;:0.9858356940509915,&quot;fontSize&quot;:100,&quot;baseline&quot;:69.60000000000001,&quot;elementType&quot;:&quot;word&quot;}"><path d="M103.14517,152.67958c-0.34766,2.89744 -1.47611,5.13042 -3.38536,6.69896c-1.71928,1.43782 -3.83156,2.15674 -6.33686,2.15674c-2.78851,0 -4.88948,-0.82784 -6.30293,-2.48352c-1.53108,-1.7646 -2.09927,-4.29169 -1.70455,-7.58126l0.35289,-2.94101c0.3921,-3.26778 1.56673,-5.79487 3.5239,-7.58126c1.83256,-1.65568 4.1322,-2.48352 6.89892,-2.48352c2.54887,0 4.50781,0.7407 5.87681,2.22209c1.48925,1.56854 2.06005,3.80152 1.71239,6.69896h-3.20243c0.24049,-2.00424 -0.08718,-3.5401 -0.983,-4.60758c-0.82436,-0.93676 -2.07528,-1.40515 -3.75274,-1.40515c-2.87565,0 -4.88293,1.29622 -6.02183,3.88866c-0.41478,0.91498 -0.69798,2.00424 -0.84959,3.26778l-0.35289,2.94101c-0.43392,3.61635 0.48413,5.86023 2.75416,6.73164c0.70672,0.28321 1.48489,0.42481 2.33451,0.42481c0.84962,0 1.63128,-0.11437 2.34496,-0.34312c0.71368,-0.22874 1.33891,-0.58275 1.8757,-1.06203c1.19556,-1.06748 1.91097,-2.58155 2.14623,-4.54222z" data-paper-data="{&quot;elementType&quot;:&quot;letter&quot;,&quot;baseline&quot;:69.60000000000001,&quot;baselineProportion&quot;:0.9858356940509915,&quot;fontSize&quot;:100}"></path><path d="M130.72527,152.67958c-0.34766,2.89744 -1.47611,5.13042 -3.38536,6.69896c-1.71928,1.43782 -3.83156,2.15674 -6.33686,2.15674c-2.78851,0 -4.88948,-0.82784 -6.30293,-2.48352c-1.53108,-1.7646 -2.09927,-4.29169 -1.70455,-7.58126l0.35289,-2.94101c0.3921,-3.26778 1.56673,-5.79487 3.5239,-7.58126c1.83256,-1.65568 4.1322,-2.48352 6.89892,-2.48352c2.54887,0 4.50781,0.7407 5.87681,2.22209c1.48925,1.56854 2.06005,3.80152 1.71239,6.69896h-3.20243c0.24049,-2.00424 -0.08718,-3.5401 -0.983,-4.60758c-0.82436,-0.93676 -2.07528,-1.40515 -3.75274,-1.40515c-2.87565,0 -4.88293,1.29622 -6.02183,3.88866c-0.41478,0.91498 -0.69798,2.00424 -0.84959,3.26778l-0.35289,2.94101c-0.43392,3.61635 0.48413,5.86023 2.75416,6.73164c0.70672,0.28321 1.48489,0.42481 2.33451,0.42481c0.84962,0 1.63128,-0.11437 2.34496,-0.34312c0.71368,-0.22874 1.33891,-0.58275 1.8757,-1.06203c1.19556,-1.06748 1.91097,-2.58155 2.14623,-4.54222z" data-paper-data="{&quot;elementType&quot;:&quot;letter&quot;,&quot;baseline&quot;:69.60000000000001,&quot;baselineProportion&quot;:0.9858356940509915,&quot;fontSize&quot;:100}"></path><path d="M153.81813,161.2085l1.19983,-9.99942h-10.22816l-1.19983,9.99942h-3.20243l2.68981,-22.417h3.20243l-1.14101,9.50925h10.22816l1.14101,-9.50925h3.20243l-2.68981,22.417z" data-paper-data="{&quot;elementType&quot;:&quot;letter&quot;,&quot;baseline&quot;:68.60000000000001,&quot;baselineProportion&quot;:1,&quot;fontSize&quot;:100}"></path><path d="M182.37856,161.2085l1.19983,-9.99942h-10.22816l-1.19983,9.99942h-3.20243l2.68981,-22.417h3.20243l-1.14101,9.50925h10.22816l1.14101,-9.50925h3.20243l-2.68981,22.417z" data-paper-data="{&quot;elementType&quot;:&quot;letter&quot;,&quot;baseline&quot;:68.60000000000001,&quot;baselineProportion&quot;:1,&quot;fontSize&quot;:100}"></path><path d="M200.27941,154.18276l-0.11502,0.68623c-0.15423,1.28533 0.21679,2.23299 1.11304,2.84297c0.89625,0.60999 2.16132,0.91498 3.79521,0.91498c1.63389,0 2.96061,-0.29955 3.98015,-0.89864c1.01954,-0.59909 1.59205,-1.42149 1.71752,-2.46718c0.12547,-1.04569 -0.10916,-1.81362 -0.7039,-2.30379c-0.59474,-0.49017 -1.36943,-0.88775 -2.32406,-1.19274c-0.95463,-0.30499 -1.99357,-0.5882 -3.11682,-0.84962c-1.12325,-0.26142 -2.15173,-0.63177 -3.08545,-1.11105c-0.93372,-0.47927 -1.679,-1.12194 -2.23584,-1.92799c-0.55684,-0.80605 -0.76207,-1.81907 -0.61568,-3.03904c0.14638,-1.21997 0.47773,-2.2112 0.99403,-2.97368c0.5163,-0.76248 1.16397,-1.39425 1.943,-1.89531c1.53628,-1.00212 3.49172,-1.50318 5.86631,-1.50318c2.30923,0 4.11306,0.49017 5.41147,1.4705c1.41866,1.06748 1.99991,2.66869 1.74374,4.80364l-0.04705,0.39213h-3.20243l0.05882,-0.49017c0.12809,-1.06748 -0.21025,-1.87898 -1.015,-2.4345c-0.80475,-0.55552 -1.88247,-0.83328 -3.23315,-0.83328c-2.28745,0 -3.85598,0.54463 -4.70559,1.63389c-0.30586,0.37035 -0.49016,0.81695 -0.5529,1.33979c-0.10456,0.87141 0.14249,1.53586 0.74115,1.99335c0.59866,0.45749 1.37531,0.83873 2.32994,1.14372c0.95463,0.30499 1.99292,0.59365 3.11486,0.86596c1.12194,0.27232 2.15043,0.64266 3.08545,1.11105c0.93503,0.46838 1.68161,1.10015 2.23976,1.89531c0.55815,0.79516 0.7588,1.8463 0.60196,3.15341c-0.15945,1.3289 -0.50997,2.4345 -1.05154,3.3168c-0.54157,0.8823 -1.22627,1.59577 -2.05411,2.1404c-1.58508,1.04569 -3.67384,1.56854 -6.26629,1.56854c-3.94313,0 -6.41358,-1.19819 -7.41137,-3.59456c-0.35554,-0.84962 -0.46012,-1.88442 -0.31374,-3.10439l0.1111,-0.65356z" data-paper-data="{&quot;elementType&quot;:&quot;letter&quot;,&quot;baseline&quot;:69.60000000000001,&quot;baselineProportion&quot;:0.9858356940509915,&quot;fontSize&quot;:100}"></path></g></g></g></g></g></svg>